<?xml version="1.0" encoding="UTF-8"?><!DOCTYPE svg PUBLIC "-//W3C//DTD SVG 1.1//EN" "http://www.w3.org/Graphics/SVG/1.1/DTD/svg11.dtd"><svg xmlns="http://www.w3.org/2000/svg" xmlns:xlink="http://www.w3.org/1999/xlink"><defs>
<clipPath id="clip0">
<rect width="67" height="28" fill="white" transform="translate(0 11)"/>
</clipPath>

<clipPath id="clip0">
<rect width="134" height="56" fill="white" transform="translate(0 20)"/>
</clipPath>

<clipPath id="clip0">
<rect width="268" height="112" fill="white" transform="translate(0 44)"/>
</clipPath>

<clipPath id="clip0">
<rect width="36" height="50" fill="white" transform="translate(7)"/>
</clipPath>

<clipPath id="clip0">
<rect width="70" height="97" fill="white" transform="translate(15)"/>
</clipPath>

<clipPath id="clip0">
<rect width="140" height="192" fill="white" transform="translate(30)"/>
</clipPath>
</defs><symbol id="icon-cat-pro" viewBox="0 0 67 50">
<circle cx="34.5" cy="25" r="25" fill="#68B738"/>
<g clip-path="url(#clip0)">
<path d="M61.55 13.9C62.1272 12.9815 62.8944 12.1973 63.8 11.6C64.3 11.25 64.6 11.25 64.9 11.9C65.3 12.85 65.65 13.85 65.35 14.9C65.2954 15.0781 65.2851 15.2668 65.3199 15.4497C65.3548 15.6327 65.4338 15.8044 65.55 15.95C65.85 16.35 66.1 16.75 66.35 17.1C66.6902 17.5319 66.9109 18.0456 66.9899 18.5897C67.0689 19.1339 67.0034 19.6892 66.8 20.2C66.6164 20.6959 66.5817 21.2346 66.7 21.75C66.7999 22.245 66.7999 22.755 66.7 23.25C66.6596 23.6207 66.5095 23.9709 66.2691 24.2559C66.0286 24.5409 65.7086 24.7478 65.35 24.85C64.7104 24.9717 64.1396 25.3284 63.75 25.85C63.7028 25.9268 63.6365 25.9901 63.5577 26.0339C63.4789 26.0777 63.3901 26.1005 63.3 26.1C62.7 26.2 61.2 24.85 61.2 24.25V23.95C61.25 22.15 61.15 22 59.5 21.25C59.1546 21.1282 58.8452 20.9219 58.6 20.65C58.3 20.25 57.9 20.3 57.45 20.45C57 20.6 56.75 20.9 56.8 21.4C56.9508 22.6104 57.0009 23.8313 56.95 25.05C56.9533 25.1891 56.9875 25.3257 57.05 25.45C58.6 27.7 59.2 30.35 59.95 32.9C60.55 34.85 61.65 35.9 63.65 36.05C63.97 36.0755 64.2876 36.1257 64.6 36.2C65.0109 36.266 65.3926 36.4538 65.6956 36.739C65.9987 37.0242 66.2092 37.3938 66.3 37.8C66.65 38.85 66.45 39.1 65.4 39.1H62.15C61.7292 39.1213 61.3167 38.9778 61 38.7C60.4939 38.2729 59.9191 37.9348 59.3 37.7C58.6155 37.4473 58.0231 36.9943 57.6 36.4C57.0143 35.5817 56.3439 34.8275 55.6 34.15C54.2 32.7 52.7 31.3 51.4 29.8C50.4103 28.7779 49.8395 27.4221 49.8 26C49.8 25.55 49.7 25.35 49.2 25.55C49.0503 25.645 48.8773 25.6969 48.7 25.7C47.3 25.7 46.6 26.55 46.1 27.8C45.65 28.85 45.05 29.85 44.5 30.9C44.1881 31.5572 44.0178 32.2727 44 33C44 34.2 44.3 34.6 45.4 35C46.1 35.25 46.75 35.5 47.1 36.2C47.5 37 47.4 37.2 46.55 37.25H43.15C42.954 37.2694 42.7568 37.2267 42.5864 37.1281C42.4159 37.0294 42.2807 36.8796 42.2 36.7L41.3 35.2C41.0347 34.8086 40.8648 34.3605 40.8041 33.8916C40.7433 33.4227 40.7932 32.9461 40.95 32.5C41.1664 31.6317 41.1835 30.7258 41 29.85C40.8739 29.24 40.8848 28.6097 41.0318 28.0045C41.1788 27.3993 41.4582 26.8342 41.85 26.35C42.15 26 42.15 25.85 41.65 25.75C39.6054 25.3157 37.6233 24.627 35.75 23.7C35.7367 23.7 35.724 23.6947 35.7146 23.6853C35.7052 23.676 35.7 23.6632 35.7 23.65C34.1 23.05 33.8 23.15 33.35 24.8C32.95 26.2 32.55 27.6 32.25 29.05C31.9 30.65 32.3 32.15 32.8 33.65C33 34.25 33.6 34.2 34.05 34.35C35.05 34.65 35.9 35.05 36.3 36.1C36.65 36.9 36.6 37 35.75 37C34.9 37 34.05 36.95 33.15 37C32.3905 37.0137 31.6493 36.7667 31.05 36.3C28.65 34.7 27.95 32.25 27.75 29.6C27.65 27.95 26.75 26.65 25.7 25.4C25.5 25.15 25.3 25.05 25 25.25C23.9267 25.8418 22.8062 26.3435 21.65 26.75C19.2371 27.602 17.1198 29.1292 15.55 31.15C14.9638 31.8875 14.5842 32.7675 14.45 33.7C14.3 34.6 14.55 35 15.45 35.25C16.35 35.5 16.8 36 16.9 36.95C16.95 37.35 16.8 37.55 16.4 37.55H12.35C12.2174 37.5406 12.0891 37.4993 11.9759 37.4297C11.8628 37.36 11.7681 37.2641 11.7 37.15C11.0719 36.3724 10.7358 35.3995 10.75 34.4C10.7237 32.6724 10.8745 30.9468 11.2 29.25C11.2667 28.7418 11.4564 28.2576 11.7527 27.8394C12.0489 27.4212 12.4427 27.0815 12.9 26.85C15.85 25.45 17.4 22.8 18.8 20.05C19.1 19.5 18.85 19.4 18.35 19.45C16.9506 19.6442 15.6248 20.1952 14.5 21.05C13.0271 22.1244 11.6396 23.3113 10.35 24.6C8.9748 25.9968 7.15133 26.8643 5.19998 27.05C1.54998 27.25 -0.150021 25.2 -2.12286e-05 21.9C0.03351 20.7748 0.457802 19.6964 1.19998 18.85C1.45799 18.5155 1.80985 18.2655 2.21061 18.1319C2.61138 17.9983 3.04287 17.9872 3.44998 18.1C4.19998 18.3 4.39998 18.7 4.09998 19.45C3.94998 19.75 3.74998 20 3.59998 20.3C3.38428 20.6065 3.21574 20.9435 3.09998 21.3C2.54998 22.8 3.29998 23.85 4.84998 24C6.49998 24.15 7.84998 23.45 9.09998 22.45C10.6059 21.2441 11.9503 19.8493 13.1 18.3C13.9596 17.1687 15.042 16.2256 16.2804 15.529C17.5188 14.8325 18.8868 14.3971 20.3 14.25C21.45 14.1 22.45 13.6 23.55 13.3C25.6072 12.6728 27.7495 12.3692 29.9 12.4C30.896 12.4415 31.8883 12.2533 32.8 11.85C35.25 10.85 37.8 10.85 40.35 11.35C42.35 11.75 44.35 12.25 46.3 12.75C47.4605 12.9662 48.6537 12.9321 49.8 12.65C51.9943 12.0937 54.2389 11.7587 56.5 11.65C57.9812 11.5779 59.4576 11.8697 60.8 12.5C61.8 12.95 61.8 12.95 61.55 13.9Z" fill="black"/>
</g>

</symbol><symbol id="icon-cat-pro_desktop" viewBox="0 0 134 100">
<circle cx="69" cy="50" r="50" fill="#68B738"/>
<g clip-path="url(#clip0)">
<path d="M123.1 25.8C124.254 23.9631 125.789 22.3946 127.6 21.2C128.6 20.5 129.2 20.5 129.8 21.8C130.6 23.7 131.3 25.7 130.7 27.8C130.591 28.1562 130.57 28.5336 130.64 28.8995C130.71 29.2655 130.867 29.6089 131.1 29.9C131.7 30.7 132.2 31.5 132.7 32.2C133.38 33.0638 133.822 34.0913 133.98 35.1795C134.138 36.2678 134.007 37.3784 133.6 38.4C133.233 39.3918 133.163 40.4692 133.4 41.5C133.6 42.49 133.6 43.51 133.4 44.5C133.319 45.2414 133.019 45.9419 132.538 46.5119C132.057 47.0819 131.417 47.4956 130.7 47.7C129.421 47.9434 128.279 48.6569 127.5 49.7C127.405 49.8536 127.273 49.9803 127.115 50.0679C126.958 50.1555 126.78 50.201 126.6 50.2C125.4 50.4 122.4 47.7 122.4 46.5V45.9C122.5 42.3 122.3 42 119 40.5C118.309 40.2564 117.69 39.8439 117.2 39.3C116.6 38.5 115.8 38.6 114.9 38.9C114 39.2 113.5 39.8 113.6 40.8C113.901 43.2209 114.002 45.6626 113.9 48.1C113.907 48.3782 113.975 48.6514 114.1 48.9C117.2 53.4 118.4 58.7 119.9 63.8C121.1 67.7 123.3 69.8 127.3 70.1C127.94 70.1511 128.575 70.2514 129.2 70.4C130.022 70.532 130.785 70.9076 131.391 71.478C131.997 72.0485 132.418 72.7877 132.6 73.6C133.3 75.7 132.9 76.2 130.8 76.2H124.3C123.458 76.2426 122.633 75.9556 122 75.4C120.988 74.5459 119.838 73.8696 118.6 73.4C117.231 72.8947 116.046 71.9887 115.2 70.8C114.029 69.1635 112.688 67.6551 111.2 66.3C108.4 63.4 105.4 60.6 102.8 57.6C100.821 55.5558 99.6789 52.8443 99.5999 50C99.5999 49.1 99.3999 48.7 98.3999 49.1C98.1005 49.29 97.7545 49.3938 97.3999 49.4C94.5999 49.4 93.1999 51.1 92.1999 53.6C91.2999 55.7 90.0999 57.7 88.9999 59.8C88.3762 61.1145 88.0355 62.5454 87.9999 64C87.9999 66.4 88.5999 67.2 90.7999 68C92.1999 68.5 93.4999 69 94.1999 70.4C94.9999 72 94.7999 72.4 93.0999 72.5H86.2999C85.9079 72.5388 85.5136 72.4535 85.1727 72.2562C84.8317 72.0588 84.5614 71.7593 84.3999 71.4L82.5999 68.4C82.0693 67.6172 81.7296 66.721 81.6081 65.7832C81.4865 64.8454 81.5865 63.8922 81.8999 63C82.3327 61.2635 82.3669 59.4516 81.9999 57.7C81.7478 56.4801 81.7696 55.2195 82.0635 54.009C82.3575 52.7986 82.9164 51.6684 83.6999 50.7C84.2999 50 84.2999 49.7 83.2999 49.5C79.2108 48.6314 75.2466 47.254 71.4999 45.4C71.4734 45.4 71.448 45.3895 71.4292 45.3707C71.4105 45.352 71.3999 45.3265 71.3999 45.3C68.1999 44.1 67.5999 44.3 66.6999 47.6C65.8999 50.4 65.0999 53.2 64.4999 56.1C63.7999 59.3 64.5999 62.3 65.5999 65.3C65.9999 66.5 67.1999 66.4 68.0999 66.7C70.0999 67.3 71.7999 68.1 72.5999 70.2C73.2999 71.8 73.1999 72 71.4999 72C69.7999 72 68.0999 71.9 66.2999 72C64.781 72.0275 63.2985 71.5334 62.0999 70.6C57.2999 67.4 55.8999 62.5 55.4999 57.2C55.2999 53.9 53.4999 51.3 51.3999 48.8C50.9999 48.3 50.5999 48.1 49.9999 48.5C47.8534 49.6836 45.6124 50.687 43.2999 51.5C38.4742 53.204 34.2395 56.2585 31.0999 60.3C29.9276 61.775 29.1683 63.5351 28.8999 65.4C28.5999 67.2 29.0999 68 30.8999 68.5C32.6999 69 33.5999 70 33.7999 71.9C33.8999 72.7 33.5999 73.1 32.7999 73.1H24.6999C24.4348 73.0812 24.1782 72.9987 23.9518 72.8594C23.7255 72.7201 23.5362 72.5282 23.3999 72.3C22.1438 70.7448 21.4716 68.799 21.4999 66.8C21.4474 63.3449 21.749 59.8936 22.3999 56.5C22.5334 55.4837 22.9128 54.5153 23.5053 53.6788C24.0978 52.8424 24.8855 52.1631 25.7999 51.7C31.6999 48.9 34.7999 43.6 37.5999 38.1C38.1999 37 37.6999 36.8 36.6999 36.9C33.9013 37.2885 31.2496 38.3905 28.9999 40.1C26.0541 42.2488 23.2791 44.6226 20.6999 47.2C17.9496 49.9937 14.3026 51.7286 10.3999 52.1C3.09992 52.5 -0.300081 48.4 -8.06041e-05 41.8C0.0669819 39.5496 0.915567 37.3928 2.39992 35.7C2.91594 35.031 3.61965 34.531 4.42119 34.2638C5.22272 33.9966 6.0857 33.9744 6.89992 34.2C8.39992 34.6 8.79992 35.4 8.19992 36.9C7.89992 37.5 7.49992 38 7.19992 38.6C6.76852 39.213 6.43144 39.8871 6.19992 40.6C5.09992 43.6 6.59992 45.7 9.69992 46C12.9999 46.3 15.6999 44.9 18.1999 42.9C21.2118 40.4882 23.9006 37.6986 26.1999 34.6C27.9192 32.3374 30.084 30.4513 32.5607 29.0581C35.0375 27.665 37.7735 26.7943 40.5999 26.5C42.8999 26.2 44.8999 25.2 47.0999 24.6C51.2144 23.3456 55.4989 22.7384 59.7999 22.8C61.792 22.883 63.7765 22.5066 65.5999 21.7C70.4999 19.7 75.5999 19.7 80.6999 20.7C84.6999 21.5 88.6999 22.5 92.5999 23.5C94.9209 23.9325 97.3074 23.8643 99.5999 23.3C103.989 22.1875 108.478 21.5175 113 21.3C115.962 21.1559 118.915 21.7395 121.6 23C123.6 23.9 123.6 23.9 123.1 25.8Z" fill="black"/>
</g>

</symbol><symbol id="icon-cat-pro_tablet" viewBox="0 0 268 200">
<circle cx="136" cy="100" r="100" fill="#68B738"/>
<g clip-path="url(#clip0)">
<path d="M246.2 55.5999C248.509 51.9261 251.578 48.7891 255.2 46.3999C257.2 44.9999 258.4 44.9999 259.6 47.5999C261.2 51.3999 262.6 55.3999 261.4 59.5999C261.182 60.3122 261.14 61.0671 261.28 61.799C261.419 62.5309 261.735 63.2177 262.2 63.7999C263.4 65.3999 264.4 66.9999 265.4 68.3999C266.761 70.1274 267.644 72.1825 267.96 74.359C268.276 76.5354 268.014 78.7567 267.2 80.7999C266.466 82.7835 266.327 84.9384 266.8 86.9999C267.2 88.9799 267.2 91.0199 266.8 92.9999C266.638 94.4827 266.038 95.8837 265.076 97.0237C264.115 98.1637 262.835 98.991 261.4 99.3999C258.842 99.8867 256.559 101.314 255 103.4C254.811 103.707 254.546 103.961 254.231 104.136C253.916 104.311 253.561 104.402 253.2 104.4C250.8 104.8 244.8 99.3999 244.8 96.9999V95.7999C245 88.5999 244.6 87.9999 238 84.9999C236.619 84.5127 235.381 83.6877 234.4 82.5999C233.2 80.9999 231.6 81.1999 229.8 81.7999C228 82.3999 227 83.5999 227.2 85.5999C227.803 90.4416 228.004 95.325 227.8 100.2C227.813 100.756 227.95 101.303 228.2 101.8C234.4 110.8 236.8 121.4 239.8 131.6C242.2 139.4 246.6 143.6 254.6 144.2C255.88 144.302 257.151 144.503 258.4 144.8C260.044 145.064 261.57 145.815 262.783 146.956C263.995 148.097 264.837 149.575 265.2 151.2C266.6 155.4 265.8 156.4 261.6 156.4H248.6C246.917 156.485 245.267 155.911 244 154.8C241.976 153.092 239.677 151.739 237.2 150.8C234.462 149.789 232.093 147.977 230.4 145.6C228.057 142.327 225.376 139.31 222.4 136.6C216.8 130.8 210.8 125.2 205.6 119.2C201.641 115.112 199.358 109.688 199.2 104C199.2 102.2 198.8 101.4 196.8 102.2C196.201 102.58 195.509 102.787 194.8 102.8C189.2 102.8 186.4 106.2 184.4 111.2C182.6 115.4 180.2 119.4 178 123.6C176.753 126.229 176.071 129.091 176 132C176 136.8 177.2 138.4 181.6 140C184.4 141 187 142 188.4 144.8C190 148 189.6 148.8 186.2 149H172.6C171.816 149.078 171.027 148.907 170.346 148.512C169.664 148.117 169.123 147.518 168.8 146.8L165.2 140.8C164.139 139.234 163.459 137.442 163.216 135.566C162.973 133.691 163.173 131.784 163.8 130C164.666 126.527 164.734 122.903 164 119.4C163.496 116.96 163.539 114.439 164.127 112.018C164.715 109.597 165.833 107.337 167.4 105.4C168.6 104 168.6 103.4 166.6 103C158.422 101.263 150.493 98.5079 143 94.7999C142.947 94.7999 142.896 94.7788 142.859 94.7413C142.821 94.7038 142.8 94.6529 142.8 94.5999C136.4 92.1999 135.2 92.5999 133.4 99.1999C131.8 104.8 130.2 110.4 129 116.2C127.6 122.6 129.2 128.6 131.2 134.6C132 137 134.4 136.8 136.2 137.4C140.2 138.6 143.6 140.2 145.2 144.4C146.6 147.6 146.4 148 143 148C139.6 148 136.2 147.8 132.6 148C129.562 148.055 126.597 147.067 124.2 145.2C114.6 138.8 111.8 129 111 118.4C110.6 111.8 107 106.6 102.8 101.6C102 100.6 101.2 100.2 100 101C95.707 103.367 91.2249 105.374 86.6 107C76.9485 110.408 68.4793 116.517 62.2 124.6C59.8553 127.55 58.3368 131.07 57.8 134.8C57.2 138.4 58.2 140 61.8 141C65.4 142 67.2 144 67.6 147.8C67.8 149.4 67.2 150.2 65.6 150.2H49.4C48.8698 150.162 48.3566 149.997 47.9039 149.719C47.4512 149.44 47.0725 149.056 46.8 148.6C44.2877 145.489 42.9433 141.598 43 137.6C42.8951 130.69 43.4982 123.787 44.8 117C45.067 114.967 45.8259 113.03 47.0108 111.358C48.1958 109.685 49.7711 108.326 51.6 107.4C63.4 101.8 69.6 91.1999 75.2 80.1999C76.4 77.9999 75.4 77.5999 73.4 77.7999C67.8027 78.5769 62.4994 80.7809 58 84.1999C52.1084 88.4976 46.5585 93.2451 41.4 98.3999C35.8993 103.987 28.6054 107.457 20.8 108.2C6.20002 109 -0.599978 100.8 2.18973e-05 87.5999C0.134147 83.0991 1.83132 78.7854 4.80002 75.3999C5.83206 74.0619 7.23949 73.0619 8.84256 72.5275C10.4456 71.9931 12.1716 71.9487 13.8 72.3999C16.8 73.1999 17.6 74.7999 16.4 77.7999C15.8 78.9999 15 79.9999 14.4 81.1999C13.5372 82.4258 12.8631 83.7741 12.4 85.1999C10.2 91.1999 13.2 95.3999 19.4 95.9999C26 96.5999 31.4 93.7999 36.4 89.7999C42.4239 84.9764 47.8014 79.3972 52.4 73.1999C55.8385 68.6747 60.1682 64.9025 65.1217 62.1161C70.0751 59.3298 75.5472 57.5886 81.2 56.9999C85.8 56.3999 89.8 54.3999 94.2 53.1999C102.429 50.6911 110.998 49.4766 119.6 49.5999C123.584 49.7658 127.553 49.0131 131.2 47.3999C141 43.3999 151.2 43.3999 161.4 45.3999C169.4 46.9999 177.4 48.9999 185.2 50.9999C189.842 51.8648 194.615 51.7285 199.2 50.5999C207.977 48.375 216.956 47.0349 226 46.5999C231.925 46.3116 237.83 47.479 243.2 49.9999C247.2 51.7999 247.2 51.7999 246.2 55.5999Z" fill="black"/>
</g>

</symbol><symbol id="icon-cat-slim" viewBox="0 0 50 53">
<circle cx="25" cy="28" r="25" fill="#68B738"/>
<g clip-path="url(#clip0)">
<path d="M35.2034 0H35.008C34.6778 0.187081 34.415 0.473924 34.2571 0.819588C33.968 1.37738 33.7453 1.96735 33.5937 2.57732C33.5612 2.76073 33.4688 2.92811 33.331 3.05315C33.1932 3.17818 33.0179 3.25377 32.8326 3.26804C32.2658 3.36597 31.7288 3.59243 31.2626 3.93012C30.7965 4.26781 30.4135 4.7078 30.1429 5.21649C29.7708 5.87697 29.4526 6.5665 29.1914 7.27835C28.4611 9.17526 27.9006 11.134 27.2114 13.0464C26.8874 13.9175 26.872 13.9175 25.8949 13.9175C24.7274 13.9175 24.8097 13.7371 24.7943 15.0258C24.7943 15.433 24.9177 15.6392 25.3497 15.6186C25.4834 15.6186 25.684 15.5515 25.7354 15.7268C25.7869 15.9021 25.612 15.9794 25.5091 16.0825C24.8994 16.7029 24.1276 17.1388 23.2823 17.3402C22.3051 17.6031 21.3074 17.8093 20.356 18.1289C17.9131 18.9485 15.6554 20.0928 13.8966 22.0309C12.8681 23.2347 12.0445 24.6001 11.4589 26.0722C9.57143 30.5258 8.656 35.2165 7.94629 39.9536C7.612 42.1753 7.37543 44.4072 7.19543 46.6546C7.10286 47.7577 7 48.8763 7 50H24.1411C24.1696 49.7731 24.1283 49.5429 24.0229 49.3402C23.858 48.9289 23.5901 48.5672 23.2451 48.29C22.9 48.0128 22.4895 47.8295 22.0531 47.7577C21.6931 47.6753 21.652 47.567 21.8731 47.2835C22.2338 46.801 22.5103 46.2607 22.6909 45.6856C23.5291 43.2062 23.8531 40.6186 24.2594 38.0567C24.4889 36.0999 25.0894 34.2051 26.0286 32.4742C26.7611 31.2002 27.7382 30.0842 28.9034 29.1907C29.3303 28.866 29.3457 28.866 29.4177 29.4175C29.4691 29.7835 29.4794 30.1598 29.5051 30.5309C29.6595 32.9662 29.6285 35.4097 29.4126 37.8402C29.2184 39.7242 29.1926 41.6217 29.3354 43.5103C29.5399 45.7029 29.9304 47.8739 30.5029 50H37.3429C37.2536 49.442 36.9973 48.9243 36.6078 48.5156C36.2184 48.1069 35.7143 47.8264 35.1623 47.7113C34.5177 47.6087 33.8587 47.6438 33.2286 47.8144C32.92 47.8866 32.7914 47.8144 32.7657 47.4794C32.5529 44.7505 32.7261 42.0051 33.28 39.3247C33.966 36.2304 34.4912 33.1025 34.8537 29.9536C34.9887 28.6819 35.3881 27.4528 36.0263 26.3454C36.6383 25.2526 37.1731 24.1186 37.7749 23.0206C38.0138 22.6214 38.1575 22.1723 38.195 21.7083C38.2325 21.2443 38.1626 20.7779 37.9909 20.3454C37.852 19.9794 37.7183 19.6082 37.5486 19.2577C37.0343 18.2526 36.52 17.2577 36.0469 16.2423C35.7949 15.7268 35.8514 15.6649 36.412 15.6495C37.2503 15.6495 37.2503 15.6495 37.2657 14.8041C37.2657 14.6907 37.2657 14.5773 37.2657 14.4639C37.2657 14.1082 37.132 13.9124 36.7514 13.9485C36.4943 13.9485 36.2371 13.9485 35.9697 13.9485C35.6149 13.9485 35.512 13.799 35.5994 13.433C35.7729 12.838 36.1142 12.306 36.5823 11.9009C37.0503 11.4958 37.6252 11.2349 38.2377 11.1495C39.3772 11.0505 40.5251 11.1252 41.6423 11.3711C41.7712 11.4118 41.9109 11.4001 42.0312 11.3383C42.1515 11.2766 42.2427 11.1699 42.2851 11.0412C42.4909 10.5258 42.7171 10.0103 42.9486 9.49484C43.001 9.40339 43.0242 9.29801 43.015 9.19293C43.0058 9.08785 42.9647 8.98812 42.8971 8.90722C41.2514 6.81443 39.4669 4.86082 37.0343 3.60825C36.9168 3.55754 36.8138 3.47814 36.7347 3.3773C36.6557 3.27646 36.6031 3.15738 36.5817 3.03093C36.444 2.29408 36.225 1.57487 35.9286 0.886598C35.7895 0.519904 35.5349 0.20865 35.2034 0V0Z" fill="black"/>
</g>

</symbol><symbol id="icon-cat-slim_desktop" viewBox="0 0 100 106">
<circle cx="50" cy="56" r="50" fill="#68B738"/>
<g clip-path="url(#clip0)">
<path d="M69.84 0H69.46C68.818 0.362938 68.307 0.919413 68 1.59C67.4377 2.67211 67.0047 3.81665 66.71 5C66.6468 5.35582 66.4671 5.68054 66.1992 5.92311C65.9313 6.16567 65.5903 6.31232 65.23 6.34C64.1279 6.52999 63.0837 6.96931 62.1773 7.62443C61.2709 8.27955 60.5262 9.13313 60 10.12C59.2766 11.4013 58.6579 12.739 58.15 14.12C56.73 17.8 55.64 21.6 54.3 25.31C53.67 27 53.64 27 51.74 27C49.47 27 49.63 26.65 49.6 29.15C49.6 29.94 49.84 30.34 50.68 30.3C50.94 30.3 51.33 30.17 51.43 30.51C51.53 30.85 51.19 31 50.99 31.2C49.8043 32.4036 48.3037 33.2492 46.66 33.64C44.76 34.15 42.82 34.55 40.97 35.17C36.22 36.76 31.83 38.98 28.41 42.74C26.4103 45.0754 24.8088 47.7242 23.67 50.58C20 59.22 18.22 68.32 16.84 77.51C16.19 81.82 15.73 86.15 15.38 90.51C15.2 92.65 15 94.82 15 97H48.33C48.3853 96.5599 48.3051 96.1133 48.1 95.72C47.7794 94.9221 47.2586 94.2204 46.5877 93.6827C45.9167 93.1449 45.1185 92.7892 44.27 92.65C43.57 92.49 43.49 92.28 43.92 91.73C44.6214 90.7939 45.159 89.7458 45.51 88.63C47.14 83.82 47.77 78.8 48.56 73.83C49.0063 70.0338 50.1739 66.3579 52 63C53.4244 60.5284 55.3243 58.3634 57.59 56.63C58.42 56 58.45 56 58.59 57.07C58.69 57.78 58.71 58.51 58.76 59.23C59.0601 63.9544 58.9999 68.6948 58.58 73.41C58.2024 77.0649 58.1522 80.7462 58.43 84.41C58.8275 88.6636 59.5869 92.8755 60.7 97H74C73.8264 95.9175 73.328 94.9132 72.5708 94.1203C71.8136 93.3274 70.8334 92.7833 69.76 92.56C68.5066 92.3608 67.2252 92.429 66 92.76C65.4 92.9 65.15 92.76 65.1 92.11C64.6863 86.8159 65.0229 81.4899 66.1 76.29C67.4338 70.287 68.4552 64.2189 69.16 58.11C69.4224 55.643 70.1992 53.2584 71.44 51.11C72.63 48.99 73.67 46.79 74.84 44.66C75.3045 43.8855 75.5841 43.0143 75.657 42.1141C75.7298 41.2139 75.594 40.3091 75.26 39.47C74.99 38.76 74.73 38.04 74.4 37.36C73.4 35.41 72.4 33.48 71.48 31.51C70.99 30.51 71.1 30.39 72.19 30.36C73.82 30.36 73.82 30.36 73.85 28.72C73.85 28.5 73.85 28.28 73.85 28.06C73.85 27.37 73.59 26.99 72.85 27.06C72.35 27.06 71.85 27.06 71.33 27.06C70.64 27.06 70.44 26.77 70.61 26.06C70.9473 24.9058 71.611 23.8737 72.5211 23.0877C73.4312 22.3018 74.549 21.7956 75.74 21.63C77.9557 21.4379 80.1878 21.5829 82.36 22.06C82.6107 22.139 82.8823 22.1161 83.1162 21.9963C83.3502 21.8766 83.5275 21.6695 83.61 21.42C84.01 20.42 84.45 19.42 84.9 18.42C85.002 18.2426 85.0471 18.0381 85.0292 17.8343C85.0113 17.6304 84.9313 17.437 84.8 17.28C81.6 13.22 78.13 9.43 73.4 7C73.1715 6.90163 72.9712 6.7476 72.8175 6.55196C72.6638 6.35633 72.5615 6.12531 72.52 5.88C72.2523 4.45051 71.8264 3.05525 71.25 1.72C70.9795 1.00861 70.4845 0.404782 69.84 0V0Z" fill="black"/>
</g>

</symbol><symbol id="icon-cat-slim_tablet" viewBox="0 0 200 211">
<circle cx="100" cy="111" r="100" fill="#68B738"/>
<g clip-path="url(#clip0)">
<path d="M139.68 0H138.92C137.636 0.718392 136.614 1.81987 136 3.14722C134.875 5.28913 134.009 7.55462 133.42 9.89691C133.294 10.6012 132.934 11.244 132.398 11.7241C131.863 12.2042 131.181 12.4945 130.46 12.5493C128.256 12.9253 126.167 13.7949 124.355 15.0917C122.542 16.3884 121.052 18.0779 120 20.0313C118.553 22.5676 117.316 25.2154 116.3 27.9489C113.46 35.233 111.28 42.7546 108.6 50.0981C107.34 53.4433 107.28 53.4433 103.48 53.4433C98.94 53.4433 99.26 52.7505 99.2 57.699C99.2 59.2627 99.68 60.0544 101.36 59.9753C101.88 59.9753 102.66 59.7179 102.86 60.3909C103.06 61.0639 102.38 61.3608 101.98 61.7567C99.6086 64.1392 96.6075 65.8129 93.32 66.5864C89.52 67.5959 85.64 68.3876 81.94 69.6148C72.44 72.7621 63.66 77.1563 56.82 84.5988C52.8206 89.2214 49.6177 94.4643 47.34 100.117C40 117.219 36.44 135.231 33.68 153.422C32.38 161.953 31.46 170.524 30.76 179.154C30.4 183.39 30 187.685 30 192H96.66C96.7707 191.129 96.6102 190.245 96.2 189.466C95.5589 187.887 94.5171 186.498 93.1753 185.434C91.8335 184.369 90.237 183.665 88.54 183.39C87.14 183.073 86.98 182.657 87.84 181.569C89.2427 179.716 90.318 177.641 91.02 175.433C94.28 165.912 95.54 155.975 97.12 146.138C98.0125 138.624 100.348 131.348 104 124.701C106.849 119.809 110.649 115.523 115.18 112.092C116.84 110.845 116.9 110.845 117.18 112.963C117.38 114.369 117.42 115.814 117.52 117.239C118.12 126.59 118 135.973 117.16 145.306C116.405 152.541 116.304 159.828 116.86 167.08C117.655 175.499 119.174 183.836 121.4 192H148C147.653 189.857 146.656 187.869 145.142 186.3C143.627 184.731 141.667 183.653 139.52 183.212C137.013 182.817 134.45 182.952 132 183.607C130.8 183.885 130.3 183.607 130.2 182.321C129.373 171.842 130.046 161.3 132.2 151.007C134.868 139.125 136.91 127.114 138.32 115.022C138.845 110.139 140.398 105.419 142.88 101.166C145.26 96.9699 147.34 92.6153 149.68 88.3992C150.609 86.8662 151.168 85.1417 151.314 83.3599C151.46 81.5781 151.188 79.7871 150.52 78.1262C149.98 76.7208 149.46 75.2957 148.8 73.9497C146.8 70.0899 144.8 66.2697 142.96 62.3703C141.98 60.3909 142.2 60.1534 144.38 60.094C147.64 60.094 147.64 60.094 147.7 56.8478C147.7 56.4124 147.7 55.9769 147.7 55.5414C147.7 54.1757 147.18 53.4235 145.7 53.5621C144.7 53.5621 143.7 53.5621 142.66 53.5621C141.28 53.5621 140.88 52.988 141.22 51.5827C141.895 49.2981 143.222 47.2551 145.042 45.6995C146.862 44.1438 149.098 43.1418 151.48 42.814C155.911 42.4338 160.376 42.7207 164.72 43.6652C165.221 43.8215 165.765 43.7762 166.232 43.5391C166.7 43.3021 167.055 42.8923 167.22 42.3983C168.02 40.419 168.9 38.4396 169.8 36.4602C170.004 36.109 170.094 35.7044 170.058 35.3008C170.023 34.8973 169.863 34.5144 169.6 34.2037C163.2 26.1674 156.26 18.6656 146.8 13.8557C146.343 13.661 145.942 13.3561 145.635 12.9688C145.328 12.5816 145.123 12.1243 145.04 11.6388C144.505 8.80926 143.653 6.04751 142.5 3.40454C141.959 1.99643 140.969 0.801217 139.68 0V0Z" fill="black"/>
</g>

</symbol><symbol id="icon-close" viewBox="0 0 18 18">
  <polygon points="18,1.3 16.7,0 9,7.7 1.3,0 0,1.3 7.7,9 0,16.7 1.3,18 9,10.3 16.7,18 18,16.7 10.3,9 "/>
</symbol><symbol id="icon-mail" viewBox="0 0 17 13">
  <path d="M15.6,11.6H1.4V5.8H0V13h17V5.8h-1.4V11.6z M0,0v2.3l8.5,7.1L17,2.3V0H0z M15.6,1.6L8.5,7.5L1.4,1.6V1.4h14.2L15.6,1.6z"/>
</symbol><symbol id="icon-mobile-menu" viewBox="0 0 24 18">
  <rect y="16" width="24" height="2"/>
  <rect y="8" width="24" height="2"/>
  <rect width="24" height="2"/>
</symbol><symbol id="icon-phone" viewBox="0 0 20 20">
  <path d="M17.9,9.4H9.4v1.2h8.5l-2.1,2.1l0.9,0.9l3.1-3.1c0.2-0.2,0.2-0.6,0-0.9l-3.1-3.1l-0.9,0.9L17.9,9.4z"/>
  <path d="M8.1,19.4v-6.2c0-0.3-0.3-0.6-0.6-0.6H4.4l0,0H3.1l0,0c0,0.7,0.6,1.2,1.2,1.2h2.5v5H3.1c-1,0.1-1.8-0.7-1.9-1.7
  c0-0.1,0-0.1,0-0.2V3.1c0-1,0.8-1.8,1.7-1.8c0.1,0,0.1,0,0.2,0h3.7v5H4.4c-0.7,0-1.2,0.6-1.2,1.2h4.4c0.3,0,0.6-0.3,0.6-0.6V0.6
  C8.1,0.3,7.8,0,7.5,0H3.1C1.5-0.1,0.1,1.2,0,2.9C0,3,0,3.1,0,3.1v13.7c-0.1,1.7,1.2,3.1,2.9,3.1c0.1,0,0.2,0,0.2,0h4.4
  C7.8,20,8.1,19.7,8.1,19.4z"/>
</symbol><symbol id="icon-plus-mobile" viewBox="0 0 30 30">
  <style type="text/css">
    .st0 {
      fill: #231F20;
    }
  </style>
  <polygon class="st0" points="30,14 16,14 16,0 14,0 14,14 0,14 0,16 14,16 14,30 16,30 16,16 30,16 "/>
</symbol><symbol id="icon-plus" viewBox="0 0 60 60">
  <style type="text/css">
    .st0 {
      fill: #231F20;
    }
  </style>
  <polygon class="st0" points="60,29.5 30.5,29.5 30.5,0 29.5,0 29.5,29.5 0,29.5 0,30.5 29.5,30.5 29.5,60 30.5,60 30.5,30.5
  60,30.5 "/>
</symbol><symbol id="icon-right-arrow-long" viewBox="0 0 24.2 11">
  <style type="text/css">
    .st0 {
      fill: #3F4242;
    }
  </style>
  <polygon class="st0" points="17.6,0 24.2,5.5 17.6,11 17.6,6.6 0,6.6 0,4.4 17.6,4.4 "/>
</symbol><symbol id="icon-right-arrow-verylong" viewBox="0 0 32 11">
  <style type="text/css">
    .st0 {
      fill: #3F4242;
    }
  </style>
  <polygon class="st0" points="25.4,0 32,5.5 25.4,11 25.4,6.6 0,6.6 0,4.4 25.4,4.4 "/>
</symbol><symbol id="icon-tick" viewBox="0 0 21.1 15.5">
  <polygon points="20.1,0 7.7,13.3 1,6.1 0,7.2 7.6,15.4 7.7,15.5 21,1.2 21.1,1.1 "/>
</symbol></svg>